<?xml version="1.0" encoding="UTF-8" standalone="no"?>
<!-- Created with Inkscape (http://www.inkscape.org/) -->

<svg
   width="500"
   height="500"
   viewBox="0 0 500 500"
   version="1.1"
   id="svg8"
   inkscape:version="1.4 (86a8ad7, 2024-10-11)"
   sodipodi:docname="3.svg"
   xmlns:inkscape="http://www.inkscape.org/namespaces/inkscape"
   xmlns:sodipodi="http://sodipodi.sourceforge.net/DTD/sodipodi-0.dtd"
   xmlns="http://www.w3.org/2000/svg"
   xmlns:svg="http://www.w3.org/2000/svg"
   xmlns:rdf="http://www.w3.org/1999/02/22-rdf-syntax-ns#"
   xmlns:cc="http://creativecommons.org/ns#"
   xmlns:dc="http://purl.org/dc/elements/1.1/">
  <defs
     id="defs2" />
  <sodipodi:namedview
     id="base"
     pagecolor="#ffffff"
     bordercolor="#666666"
     borderopacity="1.0"
     inkscape:pageopacity="0.0"
     inkscape:pageshadow="2"
     inkscape:zoom="1"
     inkscape:cx="251"
     inkscape:cy="248.5"
     inkscape:document-units="px"
     inkscape:current-layer="optotype"
     showgrid="true"
     units="px"
     inkscape:window-width="1920"
     inkscape:window-height="1009"
     inkscape:window-x="-8"
     inkscape:window-y="-8"
     inkscape:window-maximized="1"
     inkscape:lockguides="true"
     showguides="false"
     inkscape:guide-bbox="true"
     inkscape:pagecheckerboard="0"
     width="500px"
     scale-x="1"
     inkscape:showpageshadow="2"
     inkscape:deskcolor="#d1d1d1">
    <inkscape:grid
       type="xygrid"
       id="grid834"
       spacingx="50"
       spacingy="50"
       empspacing="2"
       units="px"
       originx="0"
       originy="0" />
  </sodipodi:namedview>
  <metadata
     id="metadata5">
    <rdf:RDF>
      <cc:Work
         rdf:about="">
        <dc:format>image/svg+xml</dc:format>
        <dc:type
           rdf:resource="http://purl.org/dc/dcmitype/StillImage" />
      </cc:Work>
    </rdf:RDF>
  </metadata>
  <g
     inkscape:label="Optotype"
     inkscape:groupmode="layer"
     id="optotype"
     transform="translate(0,0)"
     style="opacity:1">
    <path
       style="fill:#000000;fill-opacity:1;stroke:none;stroke-width:13.4291;stroke-linecap:round;stroke-linejoin:round;stroke-miterlimit:4;stroke-dasharray:none;stroke-opacity:1;paint-order:markers stroke fill"
       d="m 349.97122,0 c 83.09769,0 150.00263,66.904624 150.00263,150.00234 h -99.98428 c 0,-27.69907 -22.31909,-49.992 -50.01835,-49.992 H 149.97645 c -27.69928,0 -49.99215,22.29293 -49.99215,49.992 0,27.69952 22.29287,49.99245 49.99215,49.99245 H 249.98693 V 300.00513 H 149.97645 c -27.69928,0 -49.99215,22.29242 -49.99215,49.99202 0,27.69906 22.29287,49.99199 49.99215,49.99199 h 199.99477 c 27.69926,0 50.01835,-22.29293 50.01835,-49.99199 h 99.98428 C 499.97385,433.09485 433.06891,500 349.97122,500 H 149.97645 C 66.87875,500 0,433.09485 0,349.99715 0,311.46405 14.52394,276.52589 38.23392,250.01314 14.51219,223.49741 0,188.54608 0,150.00234 0,66.904624 66.8787,0 149.97645,0 Z"
       id="rect2205" />
  </g>
</svg>
