<?xml version="1.0" encoding="UTF-8" standalone="no"?>
<!-- Created with Inkscape (http://www.inkscape.org/) -->

<svg
   width="500"
   height="500"
   viewBox="0 0 500 500"
   version="1.1"
   id="svg8"
   inkscape:version="1.4 (86a8ad7, 2024-10-11)"
   sodipodi:docname="6.svg"
   xmlns:inkscape="http://www.inkscape.org/namespaces/inkscape"
   xmlns:sodipodi="http://sodipodi.sourceforge.net/DTD/sodipodi-0.dtd"
   xmlns="http://www.w3.org/2000/svg"
   xmlns:svg="http://www.w3.org/2000/svg"
   xmlns:rdf="http://www.w3.org/1999/02/22-rdf-syntax-ns#"
   xmlns:cc="http://creativecommons.org/ns#"
   xmlns:dc="http://purl.org/dc/elements/1.1/">
  <defs
     id="defs2" />
  <sodipodi:namedview
     id="base"
     pagecolor="#ffffff"
     bordercolor="#666666"
     borderopacity="1.0"
     inkscape:pageopacity="0.0"
     inkscape:pageshadow="2"
     inkscape:zoom="1"
     inkscape:cx="251"
     inkscape:cy="248.5"
     inkscape:document-units="px"
     inkscape:current-layer="optotype"
     showgrid="true"
     units="px"
     inkscape:window-width="1920"
     inkscape:window-height="1009"
     inkscape:window-x="-8"
     inkscape:window-y="-8"
     inkscape:window-maximized="1"
     inkscape:lockguides="true"
     showguides="false"
     inkscape:guide-bbox="true"
     inkscape:pagecheckerboard="0"
     width="500px"
     scale-x="1"
     inkscape:showpageshadow="2"
     inkscape:deskcolor="#d1d1d1">
    <inkscape:grid
       type="xygrid"
       id="grid834"
       spacingx="50"
       spacingy="50"
       empspacing="2"
       units="px"
       originx="0"
       originy="0" />
  </sodipodi:namedview>
  <metadata
     id="metadata5">
    <rdf:RDF>
      <cc:Work
         rdf:about="">
        <dc:format>image/svg+xml</dc:format>
        <dc:type
           rdf:resource="http://purl.org/dc/dcmitype/StillImage" />
      </cc:Work>
    </rdf:RDF>
  </metadata>
  <g
     inkscape:label="Optotype"
     inkscape:groupmode="layer"
     id="optotype"
     transform="translate(0,0)"
     style="opacity:1">
    <path
       style="fill:#000000;fill-opacity:1;stroke:none;stroke-width:13.4291;stroke-linecap:round;stroke-linejoin:round;stroke-miterlimit:4;stroke-dasharray:none;stroke-opacity:1;paint-order:markers stroke fill"
       d="m 349.99742,0 c 83.09774,0 149.97644,66.90464 149.97644,150.00235 V 349.99719 C 499.97386,433.09484 433.09516,500 349.99742,500 H 150.00263 C 66.9049,500 0,433.09484 0,349.99719 0,266.89949 66.9049,199.99485 150.00263,199.99485 h 199.99479 c 17.57282,0 34.34904,3.16219 49.99215,8.66763 v -58.66013 c 0,-27.69909 -22.29295,-49.99198 -49.99215,-49.99198 H 150.00263 c -27.69925,0 -50.01834,22.29289 -50.01834,49.99198 H 0 C 0,66.90464 66.9049,0 150.00263,0 Z m 0,300.00515 H 150.00263 c -27.69925,0 -50.01834,22.29295 -50.01834,49.99204 0,27.69903 22.31909,49.99198 50.01834,49.99198 h 199.99479 c 27.6992,0 49.99215,-22.29295 49.99215,-49.99198 0,-27.69909 -22.29295,-49.99204 -49.99215,-49.99204 z"
       id="rect4539" />
  </g>
</svg>
